<svg width="128" height="128" viewBox="0 0 128 128" fill="none" xmlns="http://www.w3.org/2000/svg">
<rect width="128" height="128" rx="64" fill="#A0AEC0"/>
<path fill-rule="evenodd" clip-rule="evenodd" d="M38.8375 40.7902C38.8375 27.0969 50.0991 16 63.9957 16C77.8923 16 89.1623 27.0969 89.1623 40.7902C89.1623 54.4918 77.8923 65.5887 63.9957 65.5887C50.0991 65.5887 38.8375 54.4918 38.8375 40.7902ZM64.1792 117.333C80.7936 117.333 95.8293 110.779 106.667 100.235V92.7546C106.667 83.7096 99.0294 76.3688 89.6 76.3688H38.4C28.9707 76.3688 21.3333 83.7096 21.3333 92.7546V99.8579C32.1963 110.615 47.3771 117.333 64.1792 117.333Z" fill="white"/>
</svg>
